<?xml version="1.0" encoding="utf-8"?>
<!-- Generator: Adobe Illustrator 16.0.3, SVG Export Plug-In . SVG Version: 6.00 Build 0)  -->
<!DOCTYPE svg PUBLIC "-//W3C//DTD SVG 1.1//EN" "http://www.w3.org/Graphics/SVG/1.1/DTD/svg11.dtd">
<svg version="1.1" id="Layer_1" xmlns="http://www.w3.org/2000/svg" xmlns:xlink="http://www.w3.org/1999/xlink" x="0px" y="0px"
	 viewBox="70 120.5 482 381" enable-background="new 70 120.5 482 381" xml:space="preserve">
<g>
	<g>
		<path fill="#FFFFFF" d="M161.493,446.668c-25.054,0-45.493,19.385-45.493,43.149c0,3.483,2.933,6.183,6.515,6.183h77.958
			c3.6,0,6.513-2.699,6.513-6.183C206.985,466.053,186.558,446.668,161.493,446.668z M129.627,483.635
			c2.648-12.014,12.673-21.426,25.353-23.959v11.595h13.028v-11.595c12.679,2.541,22.735,11.945,25.353,23.959H129.627z"/>
	</g>
</g>
<g>
	<g>
		<path fill="#FFFFFF" d="M499.485,391.135h-11.387c-0.347-0.829-0.711-1.642-1.124-2.587l8.104-7.637
			c2.473-2.393,2.473-6.241,0-8.672l-27.655-26.155c-1.248-1.306-3.117-1.849-4.844-1.714c10.313-5.27,17.365-15.451,17.365-27.186
			v-160.38c0-16.982-14.497-30.805-32.396-30.805H148.472C130.571,126,116,139.822,116,156.805v160.378
			c0,17.014,14.571,30.858,32.472,30.858h84.864l-24.552,43.094h-1.799h-9.763c-12.539,0-22.702,9.66-22.702,21.573
			c0,11.935,10.163,21.679,22.702,21.679h139.833c0,3.303,2.829,6.16,6.515,6.16h11.387c0.347,0.757,0.711,1.691,1.125,2.508
			l-8.104,7.609c-2.518,2.508-2.518,6.396,0,8.729l27.584,26.253c2.545,2.334,6.608,2.334,9.141,0l8.046-7.695
			c0.982,0.396,1.856,0.741,2.722,1.065v10.801c0,3.483,2.943,6.183,6.515,6.183h39.087c3.475,0,6.476-2.699,6.476-6.183v-10.801
			c0.809-0.326,1.78-0.672,2.665-1.065l7.999,7.695c2.665,2.334,6.738,2.334,9.211,0l27.655-26.253c2.473-2.334,2.473-6.222,0-8.729
			l-8.104-7.609c0.415-0.816,0.78-1.751,1.124-2.508h11.387c3.668,0,6.515-2.859,6.515-6.16v-37.069
			C506,393.919,503.153,391.135,499.485,391.135z M129.028,156.805c0-10.146,8.743-18.44,19.444-18.44h299.076
			c10.664,0,19.423,8.293,19.423,18.44v129.466H129.028V156.805z M148.472,335.729c-10.702,0-19.444-8.295-19.444-18.547v-18.548
			h337.943v18.548c0,10.251-8.759,18.547-19.423,18.547h-6.476h-39.087h-50.188H244.25H148.472z M458.212,346.216l-7.999,7.563
			c-0.883-0.396-1.854-0.741-2.665-1.066v-4.672C451.322,348.041,454.783,347.318,458.212,346.216z M395.471,348.041v4.67
			c-0.865,0.327-1.739,0.672-2.722,1.066l-6-5.736H395.471L395.471,348.041z M373.519,348.041l-5.573,5.301l-3.809-5.301H373.519z
			 M337.056,422.047H197.222c-5.337,0-9.716-4.263-9.716-9.339c0-5.059,4.379-9.208,9.716-9.208h9.763h5.662h124.408V422.047z
			 M223.51,391.125l24.558-43.084h100.296l10.14,14.083l-10.526,10.115c-2.516,2.421-2.516,6.27,0,8.672l8.104,7.625
			c-0.416,0.945-0.78,1.77-1.125,2.589H343.57H223.51z M492.971,428.229h-9.462c-2.827,0-5.349,1.706-6.247,4.294
			c-0.914,2.961-2.292,5.928-3.854,8.975c-1.407,2.303-0.879,5.236,1.18,7.208l6.673,6.313l-18.438,17.502l-6.667-6.342
			c-2.076-1.939-5.156-2.439-7.598-1.099c-3.204,1.481-6.343,2.781-9.465,3.649c-2.735,0.857-4.54,3.23-4.54,5.933v8.972H408.5
			v-8.974c0-2.7-1.804-5.075-4.528-5.931c-3.192-0.86-6.319-2.168-9.463-3.641c-2.583-1.342-5.63-0.842-7.601,1.09l-6.775,6.351
			l-18.329-17.502l6.667-6.313c2.065-1.969,2.521-4.904,1.186-7.207c-1.711-3.048-2.939-6.023-3.996-8.976
			c-0.762-2.6-3.389-4.305-6.113-4.305h-9.516V403.5h9.535c2.707,0,5.332-1.705,6.094-4.294c1.049-3.036,2.285-6.01,3.987-8.974
			c1.345-2.445,0.879-5.336-1.186-7.209l-6.666-6.448l18.337-17.367l6.767,6.313c1.979,1.98,5.026,2.382,7.601,1.127
			c3.152-1.633,6.271-2.781,9.464-3.804c2.733-0.723,4.538-3.212,4.538-5.781v-9.022h26.056v9.022c0,2.571,1.806,5.059,4.528,5.781
			c3.13,1.015,6.262,2.17,9.465,3.795c2.443,1.264,5.521,0.854,7.599-1.127l6.667-6.313l18.438,17.375l-6.666,6.439
			c-2.064,1.882-2.592,4.772-1.187,7.208c1.568,2.974,2.939,5.938,3.854,8.976c0.909,2.599,3.427,4.304,6.258,4.304h9.46v24.728
			H492.971z"/>
	</g>
</g>
<g>
	<g>
		<path fill="#FFFFFF" d="M421.529,378.771c-21.592,0-39.085,16.595-39.085,37.095c0,20.344,17.493,36.967,39.085,36.967
			c21.448,0,38.968-16.623,38.968-36.967C460.497,395.365,442.978,378.771,421.529,378.771z M421.529,440.547
			c-14.369,0-26.061-11.161-26.061-24.682c0-13.625,11.691-24.732,26.061-24.732c14.265,0,26.019,11.107,26.019,24.732
			C447.548,429.386,435.794,440.547,421.529,440.547z"/>
	</g>
</g>
<g>
	<g>
		<path fill="#FFFFFF" d="M244.066,173.534l-9.143-8.751l-45.514,43.159c-2.534,2.452-2.534,6.317,0,8.751l45.514,43.185
			l9.143-8.701l-40.89-38.858L244.066,173.534z"/>
	</g>
</g>
<g>
	<g>
		<path fill="#FFFFFF" d="M387.054,207.942l-45.401-43.159l-9.206,8.751l40.831,38.783l-40.831,38.858l9.206,8.701l45.401-43.185
			C389.641,214.259,389.641,210.395,387.054,207.942z"/>
	</g>
</g>
<g>
	<g>
		<polygon fill="#FFFFFF" points="253.205,258.869 311.667,147.949 323.343,153.463 264.825,264.446 		"/>
	</g>
</g>
<g>
	<g>
		<rect x="369.469" y="249.36" fill="#FFFFFF" width="12.976" height="12.314"/>
	</g>
</g>
<g>
	<g>
		<rect x="395.471" y="249.36" fill="#FFFFFF" width="13.029" height="12.314"/>
	</g>
</g>
<g>
	<g>
		<rect x="421.529" y="249.36" fill="#FFFFFF" width="13.024" height="12.314"/>
	</g>
</g>
</svg>
