<?xml version="1.0" encoding="utf-8"?>
<!-- Generator: Adobe Illustrator 16.0.3, SVG Export Plug-In . SVG Version: 6.00 Build 0)  -->
<!DOCTYPE svg PUBLIC "-//W3C//DTD SVG 1.1//EN" "http://www.w3.org/Graphics/SVG/1.1/DTD/svg11.dtd">
<svg version="1.1" id="Layer_1" xmlns="http://www.w3.org/2000/svg" xmlns:xlink="http://www.w3.org/1999/xlink" x="0px" y="0px" viewBox="359 124.5 482 381" enable-background="new 359 124.5 482 381" xml:space="preserve">
<path fill="#FFFFFF" d="M794.85,213.655c-0.033-0.168-0.23-0.305-0.277-0.441c-0.087-0.311-0.143-0.624-0.407-0.871
	c-0.081-0.183-0.12-0.337-0.424-0.508c-0.073-0.348-0.364-0.543-0.458-0.729c-0.309-0.196-0.377-0.344-0.737-0.381
	c-0.024-0.196-0.401-0.381-0.731-0.559c-0.001,0-0.005,0-0.006,0c-0.002-0.001-0.002-0.001-0.005-0.001l-75.367-40.028
	c-1.979-1.106-4.272-1.106-6.187,0l-75.68,40.028c-0.002,0-0.002,0-0.004,0.001s-0.003,0.001-0.003,0.001
	c-0.089,0.178-0.447,0.363-0.734,0.559c-0.116,0.036-0.429,0.185-0.512,0.381c-0.319,0.185-0.366,0.381-0.366,0.729
	c-0.396,0.171-0.396,0.326-0.741,0.508c-0.021,0.248-0.021,0.561-0.407,0.871c-0.009,0.137-0.009,0.273-0.009,0.441
	c-0.366,0.498-0.366,1.064-0.366,1.605v76.012l-62.761,33.421v-148.82c0-0.569-0.181-1.089-0.377-1.576
	c0-0.164-0.004-0.28-0.184-0.44c-0.017-0.31-0.197-0.65-0.381-0.87c-0.041-0.184-0.221-0.349-0.381-0.542
	c-0.197-0.191-0.381-0.552-0.582-0.742c-0.188-0.165-0.412-0.217-0.614-0.4c-0.224-0.168-0.429-0.349-0.67-0.494
	c-0.001,0-0.002,0-0.004,0c-0.001-0.001-0.002-0.002-0.002-0.003l-75.484-40.063c-1.931-0.982-4.404-0.982-6.299,0l-75.545,40.064
	c0,0.001,0,0.002,0,0.003s0,0.001,0,0.001c-0.217,0.145-0.423,0.326-0.646,0.492c-0.207,0.184-0.431,0.236-0.619,0.402
	c-0.218,0.189-0.388,0.55-0.578,0.741c-0.158,0.193-0.34,0.359-0.426,0.542c-0.184,0.219-0.32,0.56-0.397,0.87
	c-0.113,0.161-0.191,0.277-0.199,0.44c-0.182,0.488-0.278,1.006-0.278,1.575v238.195c0,2.037,1.238,3.941,3.143,5.07l151.06,80.082
	c0.292,0.122,0.666,0.291,1.035,0.371c0.179,0.039,0.251,0.102,0.436,0.193c0.578,0.124,1.143,0.17,1.713,0.17
	c0.404,0,0.971-0.046,1.532-0.17c0.096-0.087,0.25-0.144,0.414-0.176c0.386-0.084,0.772-0.26,1.141-0.39l150.965-80.081
	c1.985-1.129,3.196-3.035,3.196-5.071v-76.038l72.171-38.378c1.985-1.082,3.195-2.909,3.195-5.053V215.26
	C795,214.719,794.949,214.153,794.85,213.655 M562.362,407.432l-62.871-32.84l65.981-35.027c0-0.001,0-0.001,0-0.002l72.284-38.267
	l62.982,33.3l-46.154,24.368L562.362,407.432z M707.072,258.619v66.074l-26.528-14.021l-36.563-19.399v-66.075l26.654,14.092
	L707.072,258.619z M713.297,181.824l62.852,33.436l-62.852,33.28l-62.964-33.28L713.297,181.824z M519.508,350.7l-26.381,14.041
	v-145.48l36.511-19.396l26.424-14.049v145.428L519.508,350.7z M486.804,142.468l62.839,33.406l-62.839,33.311l-62.856-33.311
	L486.804,142.468z M417.664,185.816l26.308,14.049l36.535,19.396v155.342c0,0.003,0,0.005,0,0.008s0,0.006,0,0.008
	c0,0.341,0.115,0.712,0.135,0.734c0.025,0.368,0.03,0.728,0.137,1.016c0.009,0.004,0.009,0.007,0.011,0.011
	c0.054,0.104,0.197,0.399,0.273,0.497c0.136,0.324,0.192,0.599,0.355,0.762c0.002,0,0.002,0,0.006,0
	c0.066,0.249,0.226,0.368,0.417,0.598c0.19,0.238,0.377,0.396,0.571,0.622c0,0.005,0,0.011,0,0.015
	c0.19,0.112,0.381,0.21,0.571,0.39c0.19,0.115,0.381,0.341,0.63,0.437c0.071,0.004,0.131,0.004,0.131,0.008c0,0.003,0,0.009,0,0.012
	l72.32,37.896v66.552l-138.4-73.407V185.816z M707.072,410.76l-138.405,73.403v-66.551l102.364-54.078l36.041-18.921V410.76
	L707.072,410.76z M782.44,291.272l-62.806,33.421v-66.074l36.433-19.33l26.372-14.092L782.44,291.272L782.44,291.272z"/>
</svg>

