<?xml version="1.0" encoding="utf-8"?>
<!-- Generator: Adobe Illustrator 16.0.3, SVG Export Plug-In . SVG Version: 6.00 Build 0)  -->
<!DOCTYPE svg PUBLIC "-//W3C//DTD SVG 1.1//EN" "http://www.w3.org/Graphics/SVG/1.1/DTD/svg11.dtd">
<svg version="1.1" id="Capa_1" xmlns="http://www.w3.org/2000/svg" xmlns:xlink="http://www.w3.org/1999/xlink" x="0px" y="0px"
	 viewBox="0 0 482 381" enable-background="new 0 0 482 381" xml:space="preserve">
<path fill="#FFFFFF" d="M325.286,322.365c-35.243,30.578-84.284,53.135-130.842,53.135C89.895,375.5,4.893,292.409,4.893,190.326
	C4.893,88.393,89.895,5.5,194.444,5.5c46.656,0,91.562,16.808,126.419,47.249c14.387,12.688-0.522,32.606-13.144,46.951
	c-12.685,14.43-19.276,41.454-33.625,28.879c-22.357-19.453-49.696-31.136-79.483-31.136c-66.31,0-106.06,29.262-106.06,93.056
	c0,64.016,39.719,100.956,106.06,100.956c29.72,0,69.471-14.506,84.905-40.593c11.198-2.2,13.305,8.25,25.945,22.546
	C318.014,287.811,339.651,309.644,325.286,322.365z M362.279,202.619h-24.475v24.42c0,6.708-5.439,12.131-12.164,12.131
	c-6.729,0-12.199-5.426-12.199-12.131v-24.42H288.98c-6.732,0-12.174-5.427-12.174-12.148c0-6.671,5.439-12.097,12.174-12.097h24.46
	v-24.448c0-6.672,5.472-12.097,12.199-12.097c6.726,0,12.164,5.426,12.164,12.097v24.448h24.475c6.653,0,12.124,5.426,12.124,12.097
	C374.403,197.19,368.933,202.619,362.279,202.619z M464.725,202.629h-24.482v24.41c0,6.716-5.457,12.141-12.188,12.141
	c-6.722,0-12.162-5.427-12.162-12.141v-24.41h-24.477c-6.652,0-12.123-5.427-12.123-12.148c0-6.672,5.471-12.107,12.123-12.107
	h24.477v-24.438c0-6.673,5.439-12.097,12.162-12.097c6.73,0,12.188,5.425,12.188,12.097v24.438h24.482
	c6.725,0,12.168,5.435,12.168,12.105C476.893,197.198,471.451,202.629,464.725,202.629z"/>
</svg>
