<?xml version="1.0" encoding="utf-8"?>
<!-- Generator: Adobe Illustrator 16.0.3, SVG Export Plug-In . SVG Version: 6.00 Build 0)  -->
<!DOCTYPE svg PUBLIC "-//W3C//DTD SVG 1.1//EN" "http://www.w3.org/Graphics/SVG/1.1/DTD/svg11.dtd">
<svg version="1.1" id="Layer_1" xmlns="http://www.w3.org/2000/svg" xmlns:xlink="http://www.w3.org/1999/xlink" x="0px" y="0px"
	 viewBox="29 128.5 482 381" enable-background="new 29 128.5 482 381" xml:space="preserve">
<g id="XMLID_7_">
	<path id="XMLID_8_" fill="#FFFFFF" d="M247.392,195.77c-10.49,10.833-22.431,23.121-28.841,43.453
		c-11.121,35.438,22.758,74.108,24.153,75.711c0.335,0.366,0.729,0.628,1.136,0.628c0.438,0,0.865-0.292,1.203-0.715
		c0.648-0.766,0.885-2.168,0.474-3.307c-0.147-0.348-12.253-34.895-11.806-59.628c0.163-8.637,8.385-18.435,17.113-28.766
		c7.96-9.5,17.025-20.235,22.4-32.834c11.601-27.679-1.329-54.901-1.444-55.16c-0.493-1.067-1.505-1.443-2.341-0.915
		c-0.796,0.526-1.21,1.807-1.029,3.079c0.047,0.178,2.589,18.167-4.482,36.699C261.089,181.703,254.757,188.222,247.392,195.77z"/>
	<path id="XMLID_9_" fill="#FFFFFF" d="M323.028,220.769c0.631-0.762,0.848-2.136,0.451-3.222c-0.404-1.104-1.315-1.615-2.087-1.151
		c-1.609,0.92-39.316,22.723-39.316,49.087c0,18.217,5.2,27.75,9.02,34.84c1.463,2.706,2.729,5.109,3.209,7.116
		c1.156,5.861-1.637,16.435-2.838,20.019c-0.327,1.004-0.195,2.197,0.385,2.963c0.281,0.4,0.726,0.68,1.12,0.68
		c0.313,0,0.632-0.202,0.984-0.487c0.569-0.666,15.811-16.856,13.046-36.275c-1.001-7.326-3.47-12.735-5.553-17.517
		c-3.299-7.406-5.683-12.708-2.048-22.585C303.642,242.784,322.818,220.978,323.028,220.769z"/>
	<path id="XMLID_10_" fill="#FFFFFF" d="M134.396,331.61c-1.464,4.045-0.792,8.027,1.986,11.507
		c9.279,11.826,42.126,18.269,92.509,18.269c0.003,0,0.005,0,0.005,0c6.807,0,14.009-0.138,21.413-0.347
		c80.476-2.679,110.404-25.603,111.635-26.576c1.276-1.061,1.636-2.793,0.851-4.235c-0.823-1.416-2.674-2.14-4.354-1.684
		c-28.394,7.004-81.344,9.544-118.067,9.544c-41.099,0-62.044-2.657-67.182-4.714c2.662-3.327,18.872-9.131,38.958-12.744
		c1.952-0.369,3.256-2.007,3.069-3.775c-0.181-1.764-1.84-3.098-3.795-3.098C199.676,313.757,140.558,314.565,134.396,331.61z"/>
	<path id="XMLID_11_" fill="#FFFFFF" d="M403.893,308.003c-16.625,0-32.396,7.601-33.087,7.922c-1.533,0.743-2.301,2.405-1.87,3.977
		c0.436,1.469,1.93,2.544,3.71,2.546c0.337,0.002,35.369,0.333,38.573,18.604c2.812,15.78-33.195,41.364-47.264,49.922
		c-1.554,0.876-2.142,2.652-1.461,4.211c0.665,1.325,2.009,2.12,3.467,2.12c0.35,0,0.59-0.02,0.822-0.067
		c3.398-0.68,81.915-16.433,73.601-58.187C435.344,313.401,417.764,308.003,403.893,308.003z"/>
	<path id="XMLID_12_" fill="#FFFFFF" d="M349.96,385.854c0.258-1.313-0.296-2.716-1.514-3.448l-18.899-12.085
		c-0.836-0.566-2.013-0.776-3.151-0.537c-0.185,0.054-19.865,4.782-48.443,7.691c-11.354,1.196-24.078,1.776-36.775,1.776
		c-28.63,0-47.301-3.013-50.01-5.299c-0.393-0.61-0.267-0.932-0.19-1.067c0.479-1.31,3.134-2.755,4.849-3.367
		c1.875-0.61,2.881-2.538,2.289-4.247c-0.577-1.765-2.567-2.797-4.535-2.369c-18.865,4.168-28.121,10.007-27.439,17.344
		c1.193,12.966,34.122,19.568,61.947,21.327c4.01,0.325,8.325,0.373,12.845,0.373l0,0c46.293,0,105.626-13.214,106.206-13.383
		C348.543,388.223,349.738,387.176,349.96,385.854z"/>
	<path id="XMLID_13_" fill="#FFFFFF" d="M207.954,413.734c1.419-0.891,2.053-2.474,1.573-3.931c-0.536-1.502-2.044-2.456-3.75-2.454
		c-2.54,0.008-24.777,0.975-26.319,13.889c-0.5,3.829,0.716,7.427,3.594,10.519c7.969,8.617,29.528,13.782,65.875,15.699
		c4.292,0.237,8.662,0.365,12.973,0.365c46.282,0,77.378-13.254,78.708-13.766c1.212-0.609,2.084-1.726,2.147-2.982
		c0.093-1.31-0.58-2.464-1.777-3.13l-23.814-13.31c-0.81-0.421-1.841-0.582-2.756-0.419c-0.217,0.001-15.324,2.891-38.106,5.749
		c-4.305,0.5-9.677,0.758-16.02,0.758c-22.851,0-48.161-3.376-53.044-5.603C207.196,414.68,207.253,414.199,207.954,413.734z"/>
	<path id="XMLID_14_" fill="#FFFFFF" d="M242.419,483.21c105.806-0.066,162.709-12.099,173.621-19.679
		c3.863-2.697,4.283-5.231,3.974-6.88c-0.79-4.087-6.604-6.568-7.343-6.813c-1.541-0.63-3.644-0.526-4.897,0.439
		c-1.235,0.865-1.255,2.236-0.049,3.158c0.63,0.525,1.07,1.479-0.885,2.693c-4.371,2.592-48.494,10.504-122.015,12.938
		c-10.065,0.331-20.597,0.465-31.322,0.467c-65.868,0-114.013-5.754-120.319-9.068c2.406-2.247,19.44-5.789,37.596-7.873
		c2.001-0.195,3.382-1.464,3.074-2.727c-0.307-1.321-2.207-2.212-4.246-2.044c-0.534,0.023-2.26,0.099-4.276,0.185
		c-29.896,1.198-64.419,3.785-66.215,13.582c-0.55,2.988,0.846,5.747,4.13,8.099c8.08,5.793,31.304,13.521,139.166,13.521
		C242.416,483.21,242.416,483.21,242.419,483.21z"/>
	<path id="XMLID_15_" fill="#FFFFFF" d="M436.83,469.862c-1.507-0.474-3.219-0.267-4.412,0.591
		c-0.104,0.118-16.054,11.377-63.899,18.081c-18.354,2.469-52.739,3.734-102.259,3.734c-49.563,0-96.769-1.332-97.249-1.343
		c-1.979-0.087-3.66,0.964-3.924,2.228c-0.244,1.287,0.978,2.563,2.911,2.85c0.466,0.143,49.927,7.997,117.634,7.997
		c32.429,0,63.949-1.786,93.786-5.318c55.564-6.678,59.472-25.396,59.616-26.214C439.203,471.375,438.355,470.29,436.83,469.862z"/>
</g>
<path fill="#FFFFFF" d="M400.866,230.63h-12.895v11.851c0,3.254-2.915,5.867-6.48,5.867c-3.55,0-6.425-2.614-6.425-5.867V230.63
	h-12.972c-3.545,0-6.412-2.606-6.412-5.859c0-3.249,2.865-5.887,6.412-5.887h12.972v-11.822c0-3.247,2.877-5.879,6.425-5.879
	c3.565,0,6.48,2.632,6.48,5.879v11.822h12.895c3.509,0,6.455,2.638,6.455,5.887C407.323,228.022,404.375,230.63,400.866,230.63z"/>
</svg>
