<?xml version="1.0" encoding="utf-8"?>
<!-- Generator: Adobe Illustrator 16.0.3, SVG Export Plug-In . SVG Version: 6.00 Build 0)  -->
<!DOCTYPE svg PUBLIC "-//W3C//DTD SVG 1.1//EN" "http://www.w3.org/Graphics/SVG/1.1/DTD/svg11.dtd">
<svg version="1.1" id="Layer_1" xmlns="http://www.w3.org/2000/svg" xmlns:xlink="http://www.w3.org/1999/xlink" x="0px" y="0px" viewBox="0 0 1200 630" enable-background="new 0 0 1200 630" xml:space="preserve">
<path id="path8615" fill="#FFFFFF" d="M597.649,10C442.927,10,452.52,77.602,452.52,77.602l0.241,69.798h147.777v21.144H393.98
	c0,0-98.98-11.334-98.98,145.648c0,157.087,86.364,151.652,86.364,151.652h51.77v-72.881c0,0-2.913-87.126,85-87.126
	c87.814,0,146.378,0,146.378,0s82.51,1.447,82.51-79.924c0-81.265,0-134.527,0-134.527S759.508,10,597.649,10z M516.314,57.141
	c14.603,0,26.485,11.837,26.485,26.726c0,14.679-11.883,26.627-26.485,26.627c-14.703,0-26.583-11.948-26.583-26.627
	C489.731,68.978,501.612,57.141,516.314,57.141z"/>
<path id="path8620" fill="#FFFFFF" d="M602.254,620c154.814,0,145.047-67.285,145.047-67.285l-0.253-70.107H599.369v-20.936H806.03
	c0,0,98.97,11.334,98.97-145.756c0-157.189-86.452-151.545-86.452-151.545h-51.67v72.873c0,0,2.681,87.026-85.206,87.026
	c-87.914,0-146.584,0-146.584,0s-82.299-1.447-82.299,80.023c0,81.273,0,134.219,0,134.219S440.303,620,602.254,620z
	 M683.49,573.074c-14.801,0-26.479-11.947-26.479-26.836c0-14.887,11.678-26.834,26.479-26.834c14.807,0,26.69,11.947,26.69,26.834
	C710.181,561.127,698.296,573.074,683.49,573.074z"/>
</svg>
