<?xml version="1.0" encoding="utf-8"?>
<!-- Generator: Adobe Illustrator 16.0.3, SVG Export Plug-In . SVG Version: 6.00 Build 0)  -->
<!DOCTYPE svg PUBLIC "-//W3C//DTD SVG 1.1//EN" "http://www.w3.org/Graphics/SVG/1.1/DTD/svg11.dtd">
<svg version="1.1" id="svg3430" xmlns="http://www.w3.org/2000/svg" xmlns:xlink="http://www.w3.org/1999/xlink" x="0px" y="0px"
	 viewBox="116.5 -18 482 381" enable-background="new 116.5 -18 482 381" xml:space="preserve">
<g id="g3478">
	<g id="g3484" transform="translate(161.73 145.31)">
		<path id="path3486" fill="#FFFFFF" d="M37.327,70.503c14.175,0,24.748-3.524,31.438-10.442
			c6.613-6.812,11.185-18.702,13.587-35.126c2.223-15.483,1.383-26.28-2.527-32.118c-4.011-5.913-12.647-8.952-25.712-8.952H31.486
			L18.921,70.503H37.327z M-36.705,177.19c-1.066,0-2.055-0.618-2.723-1.748c-0.672-1.101-0.939-2.543-0.734-3.861l33.25-229.542
			c0.34-2.246,1.779-3.81,3.46-3.81h71.681c22.53,0,39.307,8.209,49.849,24.367c10.602,16.273,13.868,39,9.733,67.568
			c-1.688,11.686-4.587,22.492-8.618,32.163c-4.041,9.7-9.374,18.686-15.864,26.658c-7.779,9.738-16.565,16.799-26.132,21.01
			c-9.383,4.124-21.457,6.179-35.852,6.179H12.32l-8.289,57.175c-0.339,2.184-1.778,3.84-3.457,3.84h-37.28V177.19z"/>
	</g>
	<g id="g3492" transform="translate(311.58 116.31)">
		<path id="path3494" fill="#FFFFFF" d="M69.058,145.173c-1.058,0-2.056-0.618-2.737-1.722c-0.656-1.127-0.922-2.552-0.718-3.96
			L80.325,37.989c1.4-9.66,1.037-16.624-0.975-19.549c-1.261-1.778-4.979-4.771-15.997-4.771H36.711l-18.5,127.697
			c-0.331,2.165-1.772,3.808-3.459,3.808h-36.986c-1.046,0-2.052-0.618-2.722-1.722c-0.657-1.127-0.938-2.552-0.735-3.96
			L7.581-89.987c0.313-2.216,1.759-3.823,3.457-3.823h36.99c1.034,0,2.036,0.625,2.69,1.728c0.681,1.077,0.94,2.508,0.757,3.883
			l-7.986,55.43h28.626c21.85,0,36.643,5.152,45.29,15.762c8.791,10.836,11.54,28.188,8.149,51.53l-15.468,106.843
			c-0.313,2.165-1.791,3.81-3.455,3.81L69.058,145.173L69.058,145.173z"/>
	</g>
	<g id="g3500" transform="translate(409.55 145.31)">
		<path id="path3502" fill="#FFFFFF" d="M91.743,70.503c14.169,0,24.752-3.524,31.433-10.442
			c6.636-6.81,11.206-18.698,13.598-35.126c2.239-15.483,1.383-26.28-2.537-32.118c-3.988-5.912-12.65-8.952-25.695-8.952h-22.66
			L73.344,70.503H91.743z M17.689,177.19c-1.033,0-2.036-0.618-2.696-1.748c-0.674-1.101-0.961-2.543-0.748-3.861L47.508-57.96
			c0.332-2.248,1.769-3.812,3.478-3.812h71.665c22.525,0,39.284,8.209,49.84,24.367c10.602,16.272,13.861,38.996,9.723,67.568
			c-1.662,11.685-4.562,22.491-8.592,32.163c-4.059,9.699-9.393,18.685-15.879,26.657c-7.794,9.739-16.572,16.799-26.108,21.009
			c-9.404,4.125-21.479,6.179-35.871,6.179H66.73l-8.284,57.175c-0.324,2.186-1.778,3.841-3.46,3.841H17.689V177.19z"/>
	</g>
</g>
</svg>
