<?xml version="1.0" encoding="utf-8"?>
<!-- Generator: Adobe Illustrator 16.0.3, SVG Export Plug-In . SVG Version: 6.00 Build 0)  -->
<!DOCTYPE svg PUBLIC "-//W3C//DTD SVG 1.1//EN" "http://www.w3.org/Graphics/SVG/1.1/DTD/svg11.dtd">
<svg version="1.1" id="Layer_1" xmlns="http://www.w3.org/2000/svg" xmlns:xlink="http://www.w3.org/1999/xlink" x="0px" y="0px"
	 viewBox="28.997 128.498 482 381.004" enable-background="new 28.997 128.498 482 381.004"
	 xml:space="preserve">
<g id="XMLID_7_">
	<path id="XMLID_8_" fill="#FFFFFF" d="M247.436,195.765c-10.557,10.829-22.495,23.119-28.903,43.46
		c-11.081,35.435,22.732,74.096,24.183,75.7c0.335,0.362,0.75,0.644,1.116,0.644c0.41,0,0.833-0.284,1.189-0.719
		c0.683-0.76,0.898-2.172,0.472-3.334c-0.134-0.338-12.245-34.894-11.812-59.619c0.154-8.634,8.396-18.416,17.094-28.751
		c8.033-9.507,17.079-20.234,22.378-32.836c11.653-27.676-1.256-54.906-1.44-55.159c-0.457-1.069-1.457-1.439-2.253-0.913
		c-0.779,0.533-1.271,1.806-1.09,3.076c0.05,0.184,2.537,18.175-4.41,36.697C261.072,181.709,254.688,188.225,247.436,195.765z"/>
	<path id="XMLID_9_" fill="#FFFFFF" d="M322.96,220.771c0.661-0.757,0.896-2.139,0.485-3.224c-0.416-1.112-1.304-1.621-2.037-1.153
		c-1.649,0.924-39.325,22.714-39.325,49.076c0,18.22,5.183,27.771,8.989,34.845c1.479,2.697,2.719,5.1,3.182,7.11
		c1.185,5.871-1.676,16.449-2.803,20.036c-0.343,1.017-0.208,2.194,0.379,2.982c0.33,0.379,0.722,0.657,1.079,0.657
		c0.364,0,0.715-0.218,0.999-0.48c0.6-0.676,15.797-16.865,13.077-36.298c-1.041-7.314-3.448-12.72-5.561-17.497
		c-3.322-7.425-5.669-12.709-2.045-22.599C303.615,242.783,322.802,220.977,322.96,220.771z"/>
	<path id="XMLID_10_" fill="#FFFFFF" d="M134.395,331.586c-1.453,4.093-0.763,8.072,1.994,11.521
		c9.271,11.834,42.109,18.273,92.476,18.273c0.004,0,0.006,0,0.008,0c6.806,0,14.009-0.131,21.428-0.355
		c80.5-2.681,110.362-25.588,111.544-26.563c1.395-1.084,1.753-2.77,0.906-4.211c-0.872-1.44-2.663-2.134-4.363-1.734
		c-28.317,7.007-81.336,9.562-118.046,9.562c-41.079,0-62.001-2.645-67.142-4.727c2.656-3.311,18.862-9.11,38.964-12.729
		c1.913-0.361,3.245-1.986,3.055-3.759c-0.192-1.771-1.829-3.108-3.785-3.108C199.65,313.756,140.562,314.564,134.395,331.586z"/>
	<path id="XMLID_11_" fill="#FFFFFF" d="M403.783,307.997c-16.611,0-32.309,7.614-32.969,7.927
		c-1.562,0.725-2.356,2.437-1.915,3.982c0.429,1.477,1.957,2.523,3.692,2.525c0.353,0.002,35.427,0.345,38.606,18.614
		c2.79,15.786-33.194,41.371-47.293,49.949c-1.534,0.864-2.104,2.639-1.405,4.184c0.578,1.336,1.958,2.128,3.473,2.128
		c0.249,0,0.556-0.008,0.829-0.067c3.335-0.685,81.89-16.424,73.58-58.187C435.314,313.404,417.699,307.997,403.783,307.997z"/>
	<path id="XMLID_12_" fill="#FFFFFF" d="M349.928,385.832c0.296-1.289-0.357-2.692-1.526-3.419l-18.862-12.112
		c-0.903-0.555-2.056-0.767-3.129-0.509c-0.242,0.053-19.9,4.751-48.513,7.672c-11.331,1.229-24.053,1.777-36.755,1.777
		c-28.605,0-47.282-3.001-50.006-5.301c-0.364-0.618-0.259-0.92-0.186-1.036c0.481-1.329,3.156-2.774,4.849-3.403
		c1.905-0.573,2.907-2.545,2.31-4.224c-0.561-1.746-2.547-2.814-4.528-2.376c-18.892,4.18-28.129,10.024-27.435,17.348
		c1.181,12.933,34.106,19.566,61.905,21.328c4.005,0.316,8.333,0.36,12.89,0.36c0.002,0,0.002,0,0.002,0
		c46.242,0,105.572-13.202,106.14-13.372C348.527,388.217,349.643,387.187,349.928,385.832z"/>
	<path id="XMLID_13_" fill="#FFFFFF" d="M207.942,413.756c1.425-0.912,2.058-2.508,1.543-3.953c-0.5-1.484-2.011-2.45-3.725-2.446
		c-2.531,0.004-24.781,0.988-26.325,13.854c-0.472,3.869,0.748,7.451,3.6,10.552c7.999,8.603,29.533,13.803,65.864,15.7
		c4.315,0.255,8.673,0.359,12.986,0.359c46.214,0,77.348-13.267,78.659-13.786c1.281-0.601,2.15-1.695,2.166-2.962
		c0.07-1.309-0.626-2.481-1.805-3.131l-23.815-13.298c-0.772-0.429-1.806-0.583-2.741-0.429c-0.146,0-15.292,2.895-38.04,5.749
		c-4.33,0.479-9.737,0.759-16.097,0.759c-22.792,0-48.109-3.378-52.963-5.623C207.158,414.668,207.266,414.195,207.942,413.756z"/>
	<path id="XMLID_14_" fill="#FFFFFF" d="M242.388,483.187c105.813-0.039,162.675-12.084,173.586-19.646
		c3.919-2.699,4.32-5.234,3.968-6.905c-0.771-4.061-6.595-6.562-7.247-6.782c-1.604-0.647-3.736-0.544-5.016,0.417
		c-1.181,0.869-1.206,2.251-0.008,3.172c0.704,0.526,1.08,1.493-0.864,2.692c-4.387,2.583-48.561,10.496-122.004,12.931
		c-10.048,0.346-20.662,0.475-31.334,0.477c-65.837,0-113.99-5.757-120.307-9.069c2.457-2.255,19.465-5.793,37.59-7.885
		c2.051-0.187,3.413-1.46,3.111-2.706c-0.317-1.327-2.215-2.215-4.28-2.052c-0.517,0.023-2.233,0.076-4.25,0.185
		c-29.868,1.188-64.42,3.774-66.218,13.585c-0.552,2.954,0.84,5.738,4.141,8.085c8.071,5.798,31.291,13.501,139.132,13.501
		C242.388,483.187,242.388,483.187,242.388,483.187z"/>
	<path id="XMLID_15_" fill="#FFFFFF" d="M436.812,469.866c-1.518-0.464-3.268-0.283-4.413,0.603
		c-0.179,0.112-16.071,11.373-63.929,18.079c-18.292,2.462-52.72,3.725-102.22,3.725c-49.572,0-96.763-1.351-97.221-1.37
		c-1.978-0.061-3.667,0.985-3.944,2.247c-0.253,1.293,0.992,2.559,2.882,2.827c0.516,0.174,49.971,8.023,117.6,8.023
		c32.414,0,63.993-1.786,93.783-5.314c55.595-6.702,59.467-25.394,59.633-26.229C439.139,471.376,438.305,470.286,436.812,469.866z"
		/>
</g>
</svg>
